<?xml version="1.0" encoding="utf-8"?>
<!-- Generator: Adobe Illustrator 28.2.0, SVG Export Plug-In . SVG Version: 6.00 Build 0)  -->
<svg version="1.1" id="Artwork" xmlns="http://www.w3.org/2000/svg" xmlns:xlink="http://www.w3.org/1999/xlink" x="0px" y="0px"
	 viewBox="0 0 1362.9 496.2" style="enable-background:new 0 0 1362.9 496.2;" xml:space="preserve">
<style type="text/css">
	.st0{fill:#FFFFFF;}
</style>
<g>
	<g>
		<polygon class="st0" points="1287.4,422.6 1172.2,88.5 1102.4,290.2 1033.5,278.4 1134.9,0 1209,0 1362.9,422.6 		"/>
		<g>
			<path class="st0" d="M866.9,496.2c-74.1,0-119.6-33.5-144.7-61.6c-30.6-34.3-48.1-79.5-48.1-124.2C674.1,188.8,794,104,901.6,104
				c192.3,0,307.4,157.3,350.5,216l35.4,102.6c-1.6-2.5-165.6-253.7-382.1-253.7c-99.5,0-159,69.6-159,136.9
				c0,62.5,37.8,125.6,122.2,125.6c95.2,0,139.2-84.4,166.8-157.9l1.3-3.3l68.6,11.8l-1.6,4.8C1056.1,425.7,976.4,496.2,866.9,496.2
				z"/>
		</g>
	</g>
	<polygon class="st0" points="579.9,325.4 523,268.6 579.9,211.8 546.9,178.8 490,235.6 433.2,178.8 400.2,211.8 457.1,268.6 
		400.2,325.4 433.2,358.4 490,301.6 546.9,358.4 	"/>
	<path class="st0" d="M0,279.5V0.3h98.2v138.3h0.1c16.6-6.1,34-9.2,51.8-9.2c82.8,0,150.1,67.3,150.1,150.1s-67.3,150.1-150.1,150.1
		S0,362.3,0,279.5 M150.1,228.9c-27.9,0-50.6,22.7-50.6,50.6c0,27.9,22.7,50.6,50.6,50.6s50.6-22.7,50.6-50.6
		C200.7,251.6,178,228.9,150.1,228.9z"/>
</g>
</svg>
